<svg version="1.1" viewBox="0.0 0.0 214.33595800524935 213.82939632545933" fill="none" stroke="none" stroke-linecap="square" stroke-miterlimit="10" xmlns:xlink="http://www.w3.org/1999/xlink" xmlns="http://www.w3.org/2000/svg"><clipPath id="p.0"><path d="m0 0l214.33595 0l0 213.82939l-214.33595 0l0 -213.82939z" clip-rule="nonzero"/></clipPath><g clip-path="url(#p.0)"><path fill="#000000" fill-opacity="0.0" d="m0 0l214.33595 0l0 213.82939l-214.33595 0z" fill-rule="evenodd"/><path fill="#9fc5e8" d="m3.6377952 121.614174l88.58268 0l0 88.58268l-88.58268 0z" fill-rule="evenodd"/><path fill="#7f9db9" d="m92.220474 121.614174l29.527557 -29.527557l0 88.58268l-29.527557 29.527557z" fill-rule="evenodd"/><path fill="#b2d0ec" d="m3.6377952 121.614174l29.527561 -29.527557l88.58267 0l-29.527557 29.527557z" fill-rule="evenodd"/><path fill="#000000" fill-opacity="0.0" d="m3.6377952 121.614174l29.527561 -29.527557l88.58267 0l0 88.58268l-29.527557 29.527557l-88.58268 0zm0 0l88.58268 0l29.527557 -29.527557m-29.527557 29.527557l0 88.58268" fill-rule="evenodd"/><path stroke="#ffffff" stroke-width="4.0" stroke-linejoin="round" stroke-linecap="butt" d="m3.6377952 121.614174l29.527561 -29.527557l88.58267 0l0 88.58268l-29.527557 29.527557l-88.58268 0zm0 0l88.58268 0l29.527557 -29.527557m-29.527557 29.527557l0 88.58268" fill-rule="evenodd"/><path fill="#ea9999" d="m3.6377952 33.160107l88.58268 0l0 88.58267l-88.58268 0z" fill-rule="evenodd"/><path fill="#bb7a7a" d="m92.220474 33.160107l29.527557 -29.527561l0 88.58268l-29.527557 29.527557z" fill-rule="evenodd"/><path fill="#eeadad" d="m3.6377952 33.160107l29.527561 -29.527561l88.58267 0l-29.527557 29.527561z" fill-rule="evenodd"/><path fill="#000000" fill-opacity="0.0" d="m3.6377952 33.160107l29.527561 -29.527561l88.58267 0l0 88.58268l-29.527557 29.527557l-88.58268 0zm0 0l88.58268 0l29.527557 -29.527561m-29.527557 29.527561l0 88.58267" fill-rule="evenodd"/><path stroke="#ffffff" stroke-width="4.0" stroke-linejoin="round" stroke-linecap="butt" d="m3.6377952 33.160107l29.527561 -29.527561l88.58267 0l0 88.58268l-29.527557 29.527557l-88.58268 0zm0 0l88.58268 0l29.527557 -29.527561m-29.527557 29.527561l0 88.58267" fill-rule="evenodd"/><path fill="#ea9999" d="m92.58793 121.614174l88.58268 0l0 88.58268l-88.58268 0z" fill-rule="evenodd"/><path fill="#bb7a7a" d="m181.17061 121.614174l29.527557 -29.527557l0 88.58268l-29.527557 29.527557z" fill-rule="evenodd"/><path fill="#eeadad" d="m92.58793 121.614174l29.527557 -29.527557l88.58268 0l-29.527557 29.527557z" fill-rule="evenodd"/><path fill="#000000" fill-opacity="0.0" d="m92.58793 121.614174l29.527557 -29.527557l88.58268 0l0 88.58268l-29.527557 29.527557l-88.58268 0zm0 0l88.58268 0l29.527557 -29.527557m-29.527557 29.527557l0 88.58268" fill-rule="evenodd"/><path stroke="#ffffff" stroke-width="4.0" stroke-linejoin="round" stroke-linecap="butt" d="m92.58793 121.614174l29.527557 -29.527557l88.58268 0l0 88.58268l-29.527557 29.527557l-88.58268 0zm0 0l88.58268 0l29.527557 -29.527557m-29.527557 29.527557l0 88.58268" fill-rule="evenodd"/><path fill="#ea9999" d="m92.58793 33.160107l88.58268 0l0 88.58267l-88.58268 0z" fill-rule="evenodd"/><path fill="#bb7a7a" d="m181.17061 33.160107l29.527557 -29.527561l0 88.58268l-29.527557 29.527557z" fill-rule="evenodd"/><path fill="#eeadad" d="m92.58793 33.160107l29.527557 -29.527561l88.58268 0l-29.527557 29.527561z" fill-rule="evenodd"/><path fill="#000000" fill-opacity="0.0" d="m92.58793 33.160107l29.527557 -29.527561l88.58268 0l0 88.58268l-29.527557 29.527557l-88.58268 0zm0 0l88.58268 0l29.527557 -29.527561m-29.527557 29.527561l0 88.58267" fill-rule="evenodd"/><path stroke="#ffffff" stroke-width="4.0" stroke-linejoin="round" stroke-linecap="butt" d="m92.58793 33.160107l29.527557 -29.527561l88.58268 0l0 88.58268l-29.527557 29.527557l-88.58268 0zm0 0l88.58268 0l29.527557 -29.527561m-29.527557 29.527561l0 88.58267" fill-rule="evenodd"/><path fill="#ea9999" d="m63.041996 62.63517l88.58267 0l0 88.58268l-88.58267 0z" fill-rule="evenodd"/><path fill="#bb7a7a" d="m151.62466 62.63517l29.527573 -29.527557l0 88.58268l-29.527573 29.527557z" fill-rule="evenodd"/><path fill="#eeadad" d="m63.041996 62.63517l29.527561 -29.527557l88.58268 0l-29.527573 29.527557z" fill-rule="evenodd"/><path fill="#000000" fill-opacity="0.0" d="m63.041996 62.63517l29.527561 -29.527557l88.58268 0l0 88.58268l-29.527573 29.527557l-88.58267 0zm0 0l88.58267 0l29.527573 -29.527557m-29.527573 29.527557l0 88.58268" fill-rule="evenodd"/><path stroke="#ffffff" stroke-width="4.0" stroke-linejoin="round" stroke-linecap="butt" d="m63.041996 62.63517l29.527561 -29.527557l88.58268 0l0 88.58268l-29.527573 29.527557l-88.58267 0zm0 0l88.58267 0l29.527573 -29.527557m-29.527573 29.527557l0 88.58268" fill-rule="evenodd"/></g></svg>