<svg version="1.1" viewBox="0.0 0.0 1257.291338582677 1260.3333333333333" fill="none" stroke="none" stroke-linecap="square" stroke-miterlimit="10" xmlns:xlink="http://www.w3.org/1999/xlink" xmlns="http://www.w3.org/2000/svg"><clipPath id="p.0"><path d="m0 0l1257.2914 0l0 1260.3334l-1257.2914 0l0 -1260.3334z" clip-rule="nonzero"/></clipPath><g clip-path="url(#p.0)"><path fill="#000000" fill-opacity="0.0" d="m0 0l1257.2914 0l0 1260.3334l-1257.2914 0z" fill-rule="evenodd"/><path fill="#ea9999" d="m19.763779 325.7257l913.3228 0l0 913.3229l-913.3228 0z" fill-rule="evenodd"/><path fill="#bb7a7a" d="m933.0866 325.7257l304.44098 -304.44092l0 913.3228l-304.44098 304.44098z" fill-rule="evenodd"/><path fill="#eeadad" d="m19.763779 325.7257l304.44092 -304.44092l913.3229 0l-304.44098 304.44092z" fill-rule="evenodd"/><path fill="#000000" fill-opacity="0.0" d="m19.763779 325.7257l304.44092 -304.44092l913.3229 0l0 913.3228l-304.44098 304.44098l-913.3228 0zm0 0l913.3228 0l304.44098 -304.44092m-304.44098 304.44092l0 913.3229" fill-rule="evenodd"/><path stroke="#ffffff" stroke-width="24.0" stroke-linejoin="round" stroke-linecap="butt" d="m19.763779 325.7257l304.44092 -304.44092l913.3229 0l0 913.3228l-304.44098 304.44098l-913.3228 0zm0 0l913.3228 0l304.44098 -304.44092m-304.44098 304.44092l0 913.3229" fill-rule="evenodd"/></g></svg>