<svg version="1.1" viewBox="0.0 0.0 260.0577427821522 238.83727034120736" fill="none" stroke="none" stroke-linecap="square" stroke-miterlimit="10" xmlns:xlink="http://www.w3.org/1999/xlink" xmlns="http://www.w3.org/2000/svg"><clipPath id="p.0"><path d="m0 0l260.05774 0l0 238.83727l-260.05774 0l0 -238.83727z" clip-rule="nonzero"/></clipPath><g clip-path="url(#p.0)"><path fill="#000000" fill-opacity="0.0" d="m0 0l260.05774 0l0 238.83727l-260.05774 0z" fill-rule="evenodd"/><path fill="#ea9999" d="m67.20782 171.74915l62.645668 -62.645668l62.645676 62.645668l-62.645676 62.645676z" fill-rule="evenodd"/><path fill="#bb7a7a" d="m129.85349 109.10348l0 -41.76378l62.645676 62.645668l0 41.76378z" fill-rule="evenodd"/><path fill="#eeadad" d="m67.20782 171.74915l0 -41.76378l62.645668 -62.645668l0 41.76378z" fill-rule="evenodd"/><path fill="#000000" fill-opacity="0.0" d="m67.20782 171.74915l0 -41.76378l62.645668 -62.645668l62.645676 62.645668l0 41.76378l-62.645676 62.645676zm0 0l62.645668 -62.645668l0 -41.76378m0 41.76378l62.645676 62.645668" fill-rule="evenodd"/><path stroke="#ffffff" stroke-width="4.0" stroke-linejoin="round" stroke-linecap="butt" d="m67.20782 171.74915l0 -41.76378l62.645668 -62.645668l62.645676 62.645668l0 41.76378l-62.645676 62.645676zm0 0l62.645668 -62.645668l0 -41.76378m0 41.76378l62.645676 62.645668" fill-rule="evenodd"/><path fill="#9fc5e8" d="m4.661346 109.202675l62.645668 -62.64567l62.645668 62.64567l-62.645668 62.645668z" fill-rule="evenodd"/><path fill="#7f9db9" d="m67.307014 46.557003l0 -41.76378l62.645668 62.64567l0 41.76378z" fill-rule="evenodd"/><path fill="#b2d0ec" d="m4.661346 109.202675l0 -41.76378l62.645668 -62.64567l0 41.76378z" fill-rule="evenodd"/><path fill="#000000" fill-opacity="0.0" d="m4.661346 109.202675l0 -41.76378l62.645668 -62.64567l62.645668 62.64567l0 41.76378l-62.645668 62.645668zm0 0l62.645668 -62.64567l0 -41.76378m0 41.76378l62.645668 62.64567" fill-rule="evenodd"/><path stroke="#ffffff" stroke-width="4.0" stroke-linejoin="round" stroke-linecap="butt" d="m4.661346 109.202675l0 -41.76378l62.645668 -62.64567l62.645668 62.64567l0 41.76378l-62.645668 62.645668zm0 0l62.645668 -62.64567l0 -41.76378m0 41.76378l62.645668 62.64567" fill-rule="evenodd"/><path fill="#ea9999" d="m130.10506 108.851906l62.645676 -62.64567l62.64566 62.64567l-62.64566 62.645668z" fill-rule="evenodd"/><path fill="#bb7a7a" d="m192.75073 46.206234l0 -41.76378l62.64566 62.64567l0 41.76378z" fill-rule="evenodd"/><path fill="#eeadad" d="m130.10506 108.851906l0 -41.76378l62.645676 -62.64567l0 41.76378z" fill-rule="evenodd"/><path fill="#000000" fill-opacity="0.0" d="m130.10506 108.851906l0 -41.76378l62.645676 -62.64567l62.64566 62.64567l0 41.76378l-62.64566 62.645668zm0 0l62.645676 -62.64567l0 -41.76378m0 41.76378l62.64566 62.64567" fill-rule="evenodd"/><path stroke="#ffffff" stroke-width="4.0" stroke-linejoin="round" stroke-linecap="butt" d="m130.10506 108.851906l0 -41.76378l62.645676 -62.64567l62.64566 62.64567l0 41.76378l-62.64566 62.645668zm0 0l62.645676 -62.64567l0 -41.76378m0 41.76378l62.64566 62.64567" fill-rule="evenodd"/></g></svg>